# xmcd
#
# Track frame offsets:
#	150
#	6727
#	12875
#	18740
#	22932
#	29977
#	37175
#	43032
#	50527
#	57460
#	62052
#	66127
#	78877
#	84775
#	92490
#	99602
#	105152
#	112425
#	118895
#	126032
#	134000
#	139850
#	147915
#	154550
#	159332
#	165177
#
# Disc length: 2273 seconds
#
# Revision: 0
# Processed by: cddbd v1.5.1PL0 Copyright (c) Steve Scherf et al.
# Submitted via: audiograbber 1.83.01
#
DISCID=6508df1a
DTITLE=Carnaval de Binche - 26 airs traditionnels
DYEAR=1900
DGENRE=Folklore
TTITLE0=Aubade matinale
TTITLE1=Les d'Gins dè l'Estène
TTITLE2=Vos arez in aubade
TTITLE3=Lion Belgique
TTITLE4=La Classe
TTITLE5=Eloi à Charleroi
TTITLE6=Mère tant-pis
TTITLE7=Le postillon de Longjumeau
TTITLE8=Les brigands
TTITLE9=Airs des marins
TTITLE10=Sérénade
TTITLE11=Pas de charge
TTITLE12=Sans-soucis
TTITLE13=Le juif errant
TTITLE14=Les chasseurs
TTITLE15=Trompettes des cent gardes
TTITLE16=Polka-Marche
TTITLE17=Paysan s'en va
TTITLE18=Vivent les bleus
TTITLE19=L'ambulant
TTITLE20=Cavalcade
TTITLE21=Air du Doudou
TTITLE22=Arlequin
TTITLE23=Air classique des Gilles
TTITLE24=Quand m'grand'mère
TTITLE25=Le petit jeune homme de Binche
EXTD=
EXTT0=
EXTT1=
EXTT2=
EXTT3=
EXTT4=
EXTT5=
EXTT6=
EXTT7=
EXTT8=
EXTT9=
EXTT10=
EXTT11=
EXTT12=
EXTT13=
EXTT14=
EXTT15=
EXTT16=
EXTT17=
EXTT18=
EXTT19=
EXTT20=
EXTT21=
EXTT22=
EXTT23=
EXTT24=
EXTT25=
PLAYORDER=
